<svg xmlns="http://www.w3.org/2000/svg" width="100" height="100" viewBox="0 0 100 100">
    <path fill="black" d="M72.6,54.3c0.1,11.6,10.2,15.5,10.3,15.6c-0.1,0.2-1.6,5.6-5.5,11c-3.3,4.8-6.7,9.7-12.1,9.8
        c-5.3,0.1-7-3.2-13-3.2c-6,0-7.8,3.1-13.1,3.3c-5.3,0.2-9.3-5.2-12.6-10c-6.8-9.9-12.1-28-5-40.2c3.4-5.9,9.5-9.7,16-9.8
        c5,0,9.7,3.4,13,3.4c3.2,0,9.1-4.2,15.4-3.6c2.6,0.1,9.9,1.1,14.6,8.3C80,43.2,72.5,47.1,72.6,54.3z M65,19.4
        c2.9-3.5,4.8-8.3,4.3-13.2c-4.1,0.2-9.2,2.8-12.2,6.3c-2.7,3.2-5,8.2-4.3,13c4.5,0.4,9.3-2.5,12.2-6.1H65z"/>
</svg>
